# xmcd CD database file
#
# Track frame offsets:
#	150
#	19075
#	34575
#	54275
#	70000
#	88775
#	107750
#	127000
#	145762
#	164200
#	186462
#	204862
#	225987
#	245325
#	264850
#	281600
#	299225
#	316375
#
# Disc length: 4487 seconds
#
# Revision: 24
# Processed by: cddbd v1.5.2PL0 Copyright (c) Steve Scherf et al.
# Submitted via: CDex 1.70beta2
#
DISCID=07118512
DTITLE=Juan Luis Guerra y 4.40 - Grandes éxitos
DYEAR=1995
DGENRE=Merengue
TTITLE0=El costo de la vida
TTITLE1=Rosalía
TTITLE2=Woman del callao
TTITLE3=Visa para un sueño
TTITLE4=Burbujas de amor
TTITLE5=Ojalá que llueva café
TTITLE6=Me enamoro de ella
TTITLE7=Frío frío
TTITLE8=Como abeja al panal
TTITLE9=A pedir su mano
TTITLE10=La Bilirrubina
TTITLE11=Carta de amor
TTITLE12=Bachata rosa
TTITLE13=Guavaberry
TTITLE14=La cosquillita
TTITLE15=La gallera
TTITLE16=Si tú te vas
TTITLE17=Rompiendo fuente
EXTD=YEAR: 1995
EXTT0=
EXTT1=
EXTT2=
EXTT3=
EXTT4=
EXTT5=
EXTT6=
EXTT7=
EXTT8=
EXTT9=
EXTT10=
EXTT11=
EXTT12=
EXTT13=
EXTT14=
EXTT15=
EXTT16=
EXTT17=
PLAYORDER=
